<svg width="296" height="170" viewBox="0 0 296 170" fill="none" xmlns="http://www.w3.org/2000/svg">
<path d="M46.8473 0.00297726C46.3816 -0.0248168 45.9261 0.135201 45.603 0.471667C33.4759 13.5284 30.5101 34.7711 38.2377 50.9976C28.8143 49.8547 16.5906 49.7804 8.23488 57.3703C-1.4453 66.1543 -1.5122 81.1666 2.52109 91.387C5.75116 99.5747 13.156 107.937 22.3841 108.562C18.6122 115.902 17.9568 124.943 20.7608 132.75C23.1409 139.389 28.1816 145.288 34.6048 148.93C38.6038 151.209 42.9625 152.48 47.1788 152.638C53.0785 152.841 59.1558 151.65 64.7141 149.173C64.8386 149.124 73.1174 145.181 76.8934 141.493C83.9267 157.041 99.2148 167.971 115.811 169.055L116.054 169.07C132.919 170.076 149.611 160.849 158.265 145.919C172.937 158.834 186.587 165.172 200.089 165.267C215.215 165.383 232.292 154.307 234.34 137.971C246.555 145.665 262.469 146.597 274.785 140.142C288.272 133.064 296.866 117.007 295.23 101.93C293.59 86.9284 281.71 73.8431 267.732 71.3049C271.355 61.4666 269.811 49.5599 263.71 41.1259C257.193 32.1241 245.601 27.1632 234.848 28.8057C224.853 30.3249 216.502 36.7167 208.264 43.9953C205.568 34.9594 199.335 27.0792 191.251 22.6086C182.378 17.7163 171.487 17.0289 162.122 20.7763C152.488 24.62 145.254 32.5015 139.213 40.0985C133.726 24.5112 118.29 13.3107 102.183 13.6787C85.7103 14.0435 70.4938 26.3916 66.0483 42.734C60.5208 39.8016 53.9705 34.7671 50.9065 26.5144C48.4635 19.909 44.9608 5.54488 47.9379 2.35234C48.4777 1.76667 48.404 0.882279 47.7613 0.37584C47.4881 0.172288 47.1692 0.0596448 46.8655 0.0415184L46.8473 0.00297726ZM40.7453 54.1805C41.2515 54.2107 41.7506 53.9971 42.0564 53.6034C42.3845 53.1736 42.4353 52.615 42.156 52.1489C34.5846 38.6467 35.4834 20.6695 43.7455 7.71917C43.9041 15.9857 47.9432 27.2175 47.9958 27.3705C50.9344 35.3161 57.2849 41.7803 66.3744 46.0676C66.7904 46.2609 67.2975 46.2725 67.7136 46.0913C68.1298 45.9102 68.4336 45.5539 68.539 45.1108C71.9963 29.3834 86.7988 16.8047 102.255 16.454C117.955 16.0992 132.919 27.7584 137.096 43.5483C137.229 44.0805 137.694 44.5014 138.297 44.6123C138.88 44.722 139.48 44.5144 139.83 44.0672C145.991 36.1217 153.398 27.2957 163.343 23.3394C171.815 19.9506 181.673 20.5764 189.699 25.0061C197.784 29.4581 203.835 37.6832 205.909 46.9628C206.023 47.4751 206.428 47.8738 206.947 48.0358C207.467 48.1979 208.063 48.065 208.448 47.7135C216.969 40.0586 225.435 33.0558 235.348 31.5504C244.933 30.1004 255.313 34.5583 261.149 42.6395C267.061 50.8188 268.29 62.5569 264.207 71.8622C264.023 72.2632 264.079 72.7345 264.323 73.1049C264.565 73.4938 264.999 73.7444 265.463 73.7908C278.849 75.2825 290.58 87.7411 292.17 102.16C293.701 116.181 285.737 131.115 273.212 137.689C261.189 143.992 245.401 142.601 233.894 134.237C233.444 133.911 232.819 133.836 232.32 134.05C231.8 134.262 231.469 134.748 231.461 135.272C231.027 151.423 214.557 162.554 200.039 162.455C187.004 162.351 173.505 155.872 158.873 142.604C158.524 142.283 158.024 142.141 157.554 142.207C157.063 142.271 156.661 142.565 156.456 142.965C148.724 157.745 132.099 167.237 115.964 166.256C99.8533 165.2 84.4845 153.517 78.5748 137.848C78.2895 137.12 77.4383 136.713 76.6324 136.965C75.9096 137.184 75.5075 137.853 75.6339 138.515C74.8873 140.287 65.9278 145.538 63.3259 146.693C58.2049 148.971 52.6197 150.08 47.2069 149.888C43.5393 149.725 39.6796 148.615 36.133 146.606C30.3212 143.3 25.7581 137.954 23.6076 131.946C20.7854 124.101 21.7962 114.875 26.2189 107.893C26.5076 107.442 26.4986 106.861 26.1778 106.411C25.8571 105.961 25.3014 105.722 24.7294 105.782C15.8663 106.657 8.47156 98.4826 5.35177 90.5074C1.64018 81.0926 1.63789 67.3494 10.3571 59.4255C18.5205 52.0114 30.8108 52.7262 40.5823 54.1895C40.6228 54.1919 40.6836 54.1955 40.7241 54.1979L40.7453 54.1805Z" fill="#00A400"/>
</svg>
