<svg width="296" height="190" viewBox="0 0 296 190" fill="none" xmlns="http://www.w3.org/2000/svg">
<path d="M59.8082 189.004C59.3405 189.102 58.8543 189.01 58.4755 188.722C44.1896 177.47 37.9381 156.638 43.2909 139.222C33.9148 141.785 21.5373 143.7 11.909 137.356C0.755892 130.015 -1.60559 114.988 0.920678 104.143C2.94343 95.4559 9.17073 85.9653 18.428 83.9493C13.4838 77.1659 11.438 68.2079 13.0872 59.9664C14.4851 52.958 18.6926 46.2902 24.6463 41.6759C28.3511 38.7906 32.5744 36.861 36.8235 36.068C42.7721 34.9771 49.1135 35.2554 55.1254 36.8995C55.259 36.9295 64.2522 39.633 68.6426 42.7584C73.3954 26.1255 87.2202 12.8763 103.876 9.29169L104.12 9.24059C121.059 5.69328 139.386 12.4223 150.438 26.0743C163.335 10.9292 176.201 2.52571 189.871 0.398349C205.184 -1.99552 224.183 6.52789 228.755 22.5821C239.959 13.0363 255.947 9.7077 269.415 14.3189C284.165 19.3777 295.329 34.1676 295.975 49.5152C296.605 64.7885 286.563 79.6839 272.784 84.3307C277.96 93.6396 278.213 105.798 273.319 115.165C268.089 125.163 257.099 131.877 245.949 131.85C235.587 131.834 226.146 126.689 216.685 120.638C215.333 130.095 210.22 138.926 202.71 144.621C194.464 150.857 183.531 153.186 173.467 150.842C163.115 148.442 154.579 141.637 147.296 134.937C144.116 151.376 130.183 164.919 113.802 166.975C97.0513 169.09 79.7425 159.012 72.74 143.312C67.5859 147.082 61.7162 153.11 59.8716 161.838C58.4049 168.822 57.0495 183.737 60.5546 186.487C61.1911 186.992 61.2516 187.889 60.6776 188.493C60.4317 188.738 60.1258 188.899 59.8208 188.963L59.8082 189.004ZM45.3462 135.656C45.8545 135.55 46.393 135.689 46.7632 136.037C47.1614 136.418 47.2982 136.97 47.0863 137.479C41.4755 152.143 45.1331 170.014 55.4855 181.742C54.3833 173.438 56.7609 161.58 56.7909 161.419C58.5552 153.018 64.0039 145.587 72.5611 139.924C72.9532 139.668 73.4655 139.58 73.9149 139.699C74.3643 139.817 74.7266 140.129 74.9012 140.557C80.8082 155.789 97.7326 166.16 113.451 164.184C129.418 162.176 142.803 148.245 144.623 131.8C144.677 131.247 145.084 130.756 145.678 130.554C146.252 130.356 146.892 130.474 147.315 130.869C154.773 137.9 163.629 145.625 174.313 148.091C183.418 150.21 193.313 148.099 200.77 142.454C208.284 136.777 213.161 127.627 213.845 118.02C213.882 117.49 214.232 117.03 214.733 116.789C215.235 116.549 215.859 116.592 216.303 116.886C226.11 123.271 235.76 129.01 246.037 129.026C255.973 129.035 265.812 123.007 270.492 114.034C275.234 104.951 274.686 93.0091 269.127 84.303C268.879 83.9292 268.863 83.4487 269.054 83.0411C269.24 82.6149 269.641 82.2987 270.105 82.1822C283.443 78.6729 293.43 64.4276 292.839 49.746C292.248 35.4708 281.895 21.7112 268.196 17.0127C255.047 12.5087 239.259 16.2796 228.873 26.3893C228.468 26.7839 227.845 26.953 227.307 26.8142C226.748 26.6796 226.338 26.2429 226.25 25.7195C223.342 9.60703 204.949 0.937322 190.25 3.22198C177.055 5.28847 164.363 13.8105 151.56 29.3036C151.256 29.6769 150.771 29.8946 150.284 29.8998C149.776 29.9093 149.324 29.675 149.056 29.3055C138.961 15.6658 120.661 8.66019 104.458 12.0727C88.2907 15.5552 74.4992 29.5715 70.9036 46.1556C70.7258 46.9283 69.9252 47.4636 69.07 47.3331C68.3039 47.2226 67.7942 46.6132 67.821 45.9302C66.7937 44.2681 56.9109 40.3575 54.0972 39.592C48.559 38.081 42.7289 37.8117 37.2723 38.819C33.58 39.5341 29.8378 41.2274 26.5503 43.7738C21.1649 47.9594 17.357 54.0016 16.0953 60.3428C14.4336 68.6257 16.8677 77.7152 22.417 84.0429C22.7784 84.451 22.8581 85.0343 22.6017 85.5331C22.3453 86.0319 21.8186 86.3551 21.2298 86.3817C12.1132 86.8393 5.86746 96.1402 3.924 104.598C1.6007 114.587 3.69816 128.353 13.7459 134.978C23.1524 141.175 35.4996 138.609 45.1796 135.672C45.2203 135.663 45.2813 135.651 45.3219 135.642L45.3462 135.656Z" fill="#00A400"/>
</svg>
