<svg width="300" height="194" viewBox="0 0 300 194" fill="none" xmlns="http://www.w3.org/2000/svg">
<path d="M62.3866 193.485C61.913 193.578 61.4167 193.473 61.0257 193.167C46.2698 181.222 39.4878 159.493 44.575 141.529C35.0936 144.009 22.547 145.759 12.6273 138.994C1.13682 131.166 -1.57124 115.533 0.776045 104.332C2.65539 95.3586 8.79357 85.6325 18.1653 83.7179C12.9994 76.5869 10.7363 67.2554 12.2449 58.7376C13.5232 51.4942 17.6653 44.6578 23.6248 39.9848C27.333 37.0624 31.588 35.1414 35.8923 34.3999C41.9186 33.3818 48.3723 33.7915 54.5188 35.6116C54.6553 35.6454 63.8549 38.6214 68.383 41.9473C72.876 24.7841 86.6627 11.3041 103.525 7.90342L103.772 7.85507C120.923 4.49857 139.696 11.8286 151.213 26.2012C164.017 10.7368 176.927 2.26504 190.784 0.319136C206.305 -1.87189 225.799 7.33234 230.775 24.0732C241.973 14.3848 258.161 11.237 271.95 16.2775C287.052 21.8066 298.705 37.3618 299.675 53.2947C300.627 69.1503 290.721 84.4102 276.805 88.9676C282.258 98.7228 282.764 111.34 277.979 120.963C272.865 131.234 261.827 137.989 250.49 137.749C239.953 137.534 230.248 132.017 220.505 125.56C219.323 135.344 214.305 144.408 206.784 150.172C198.527 156.484 187.458 158.69 177.177 156.067C166.602 153.38 157.784 146.158 150.242 139.069C147.344 156.061 133.453 169.843 116.838 171.664C99.8491 173.538 82.0435 162.753 74.6026 146.334C69.4389 150.145 63.5936 156.287 61.8963 165.306C60.5475 172.523 59.4739 187.969 63.0941 190.888C63.7516 191.424 63.8314 192.356 63.2601 192.971C63.0151 193.221 62.7073 193.382 62.3985 193.442L62.3866 193.485Z" fill="url(#paint0_linear_183_222)"/>
<defs>
<linearGradient id="paint0_linear_183_222" x1="33.9909" y1="202.178" x2="143.293" y2="-76.0365" gradientUnits="userSpaceOnUse">
<stop stop-color="#565450"/>
<stop offset="0.18" stop-color="#949290"/>
<stop offset="0.34" stop-color="#C6C3C3"/>
<stop offset="0.42" stop-color="#DAD7D7"/>
<stop offset="0.45" stop-color="#D3D0CF"/>
<stop offset="0.49" stop-color="#C0BDBC"/>
<stop offset="0.54" stop-color="#A09D9C"/>
<stop offset="0.55" stop-color="#969391"/>
<stop offset="0.65" stop-color="#969391"/>
<stop offset="0.84" stop-color="#C4C1C0"/>
<stop offset="0.86" stop-color="#BDBAB9"/>
<stop offset="0.9" stop-color="#AAA7A6"/>
<stop offset="0.94" stop-color="#8C8987"/>
<stop offset="0.99" stop-color="#615F5C"/>
<stop offset="1" stop-color="#565450"/>
</linearGradient>
</defs>
</svg>
