<svg width="298" height="172" viewBox="0 0 298 172" fill="none" xmlns="http://www.w3.org/2000/svg">
<path d="M47.781 0.00277807C47.3119 -0.0222915 46.8515 0.143209 46.5235 0.486904C34.2059 13.8212 31.064 35.4025 38.7369 51.8202C29.2465 50.7237 16.9258 50.7308 8.44897 58.4908C-1.37145 67.4719 -1.54658 82.7097 2.44557 93.0562C5.64268 101.345 13.0466 109.782 22.3438 110.355C18.4892 117.83 17.7637 127.012 20.534 134.916C22.8856 141.639 27.9242 147.593 34.3725 151.245C38.3871 153.532 42.7714 154.793 47.0202 154.925C52.9655 155.091 59.0998 153.84 64.7202 151.289C64.8461 151.239 73.2193 147.18 77.0518 143.412C84.0297 159.146 99.3614 170.136 116.083 171.125L116.327 171.138C133.32 172.046 150.211 162.568 159.041 147.355C173.738 160.365 187.45 166.706 201.06 166.711C216.306 166.727 233.598 155.37 235.78 138.775C248.037 146.502 264.071 147.34 276.532 140.705C290.177 133.431 298.955 117.075 297.414 101.783C295.869 86.5673 283.988 73.3659 269.916 70.8839C273.639 60.8737 272.168 48.7988 266.079 40.2795C259.575 31.1866 247.926 26.2296 237.075 27.9692C226.989 29.5786 218.526 36.1226 210.17 43.5659C207.517 34.4127 201.291 26.4564 193.175 21.9732C184.266 17.0675 173.293 16.4432 163.827 20.31C154.088 24.2764 146.74 32.3248 140.596 40.0765C135.177 24.2925 119.698 13.0281 103.46 13.5102C86.8534 13.9917 71.4269 26.6276 66.8287 43.2451C61.2782 40.3059 54.7117 35.2402 51.6824 26.8844C49.2674 20.1964 45.8398 5.64052 48.8635 2.38002C49.4117 1.78192 49.3438 0.884776 48.6997 0.375068C48.4257 0.170313 48.1051 0.0581107 47.7991 0.041761L47.781 0.00277807Z" fill="url(#paint0_linear_183_285)"/>
<defs>
<linearGradient id="paint0_linear_183_285" x1="19.1623" y1="-4.48449" x2="161.944" y2="248.723" gradientUnits="userSpaceOnUse">
<stop stop-color="#565450"/>
<stop offset="0.18" stop-color="#949290"/>
<stop offset="0.34" stop-color="#C6C3C3"/>
<stop offset="0.42" stop-color="#DAD7D7"/>
<stop offset="0.45" stop-color="#D3D0CF"/>
<stop offset="0.49" stop-color="#C0BDBC"/>
<stop offset="0.54" stop-color="#A09D9C"/>
<stop offset="0.55" stop-color="#969391"/>
<stop offset="0.65" stop-color="#969391"/>
<stop offset="0.84" stop-color="#C4C1C0"/>
<stop offset="0.86" stop-color="#BDBAB9"/>
<stop offset="0.9" stop-color="#AAA7A6"/>
<stop offset="0.94" stop-color="#8C8987"/>
<stop offset="0.99" stop-color="#615F5C"/>
<stop offset="1" stop-color="#565450"/>
</linearGradient>
</defs>
</svg>
