<svg width="158" height="136" viewBox="0 0 158 136" fill="none" xmlns="http://www.w3.org/2000/svg">
<g clip-path="url(#clip0_210_1871)">
<path d="M124.362 62.501C124.163 62.484 123.958 62.503 123.768 62.5382C122.578 62.7587 121.661 63.7749 121.608 65.0335L119.891 104.467C119.827 105.927 120.963 107.165 122.417 107.229C123.875 107.291 125.114 106.136 125.175 104.696L126.892 65.262C126.956 63.8018 125.82 62.5637 124.365 62.5004L124.362 62.501Z" fill="#9C2121"/>
<path d="M106.424 65.7801C106.299 65.7844 106.178 65.7973 106.055 65.82C105.492 65.9243 104.988 66.208 104.59 66.6399C104.109 67.1599 103.867 67.8356 103.9 68.5489L105.655 107.339C105.687 108.043 105.984 108.698 106.515 109.177C107.034 109.657 107.718 109.898 108.42 109.866C109.891 109.81 111.012 108.53 110.945 107.098L109.19 68.3074C109.158 67.6033 108.857 66.949 108.329 66.47C107.811 65.9892 107.127 65.7482 106.424 65.7801Z" fill="#9C2121"/>
<path d="M88.4808 69.0793L88.3248 69.1083C87.7007 69.2239 87.1428 69.5618 86.7456 70.0855C86.3027 70.6525 86.1199 71.3614 86.213 72.0732L91.4405 110.22C91.6434 111.666 92.9796 112.686 94.4244 112.491L94.5467 112.469C95.9449 112.21 96.8785 110.905 96.6927 109.5L91.4652 71.3536C91.2623 69.9079 89.9261 68.8876 88.4814 69.0824L88.4808 69.0793Z" fill="#9C2121"/>
<path d="M72.517 72.7184C71.9613 72.3808 71.3091 72.2576 70.6758 72.3749L70.5381 72.4004C69.1101 72.7379 68.2252 74.1697 68.5504 75.5928L77.2473 113.097C77.5738 114.475 78.9102 115.359 80.3084 115.1L80.4216 115.079C81.8496 114.742 82.7344 113.31 82.4092 111.887L73.7123 74.3828C73.5489 73.6841 73.1228 73.0879 72.5164 72.7154L72.517 72.7184Z" fill="#9C2121"/>
<path d="M55.9391 77.4389C55.7162 76.7607 55.246 76.2171 54.6138 75.8937C54.0923 75.6385 53.5206 75.5574 52.9546 75.6623C52.8322 75.6849 52.7146 75.7162 52.5956 75.7573C51.9278 75.9793 51.3758 76.4524 51.0618 77.0843C50.7392 77.7209 50.6912 78.4398 50.9124 79.1088L63.0817 115.969C63.5292 117.335 65.0307 118.119 66.4252 117.651C67.0931 117.429 67.645 116.956 67.959 116.324C68.2816 115.687 68.3296 114.969 68.1084 114.3L55.9391 77.4389Z" fill="#9C2121"/>
<path d="M38.1481 80.5008C37.8674 79.8523 37.3533 79.3453 36.6957 79.09C36.23 78.8974 35.7285 78.854 35.2512 78.9424C35.0524 78.9793 34.8538 79.0351 34.6737 79.1223C33.3348 79.7032 32.7177 81.266 33.2967 82.6072L48.9384 118.825C49.5049 120.149 51.0769 120.783 52.4158 120.202C53.7547 119.622 54.3719 118.059 53.7928 116.718L38.1512 80.5002L38.1481 80.5008Z" fill="#9C2121"/>
<path d="M100.955 39.5746L92.2149 41.194L89.1691 37.6221L71.9892 17.433C71.6786 17.069 71.7229 16.5188 72.0777 16.2122L76.6224 12.321C76.747 12.225 76.8799 12.156 77.0267 12.1288C77.3204 12.0744 77.6367 12.1774 77.8424 12.4183L96.6472 34.5091L100.955 39.5746Z" fill="#824F73"/>
<path d="M67.5479 18.2587L58.5997 43.5139L57.1178 47.6997L48.3777 49.319L50.9593 42.0325L60.2956 15.6722C60.4561 15.2209 60.9519 14.9927 61.4005 15.1442L67.0306 17.1501C67.4748 17.3119 67.7084 17.8074 67.5479 18.2587Z" fill="#824F73"/>
<path d="M142.435 33.7684C141.857 33.2544 141.08 33.0401 140.318 33.1812L9.33117 57.4506C8.56638 57.5923 7.92097 58.0732 7.55987 58.7582C7.20239 59.4456 7.17936 60.2486 7.49581 60.9539L13.5199 74.2781C13.9922 75.3317 15.123 75.924 16.2519 75.7149L140.347 52.7225C141.476 52.5134 142.321 51.5548 142.387 50.4016L143.271 35.7974C143.318 35.0247 143.01 34.2799 142.429 33.7695L142.435 33.7684Z" fill="#E83131"/>
<path d="M20.5822 75.8154L25.2172 86.0786L36.4316 110.879L41.4302 121.949C43.6924 126.969 49.0565 129.782 54.4713 128.778L123.532 115.983C128.947 114.98 132.956 110.433 133.291 104.929L134.16 90.4354L135.758 63.9177L136.335 54.3687L20.5822 75.8154ZM52.7677 121.018C52.5189 121.128 52.2634 121.2 52.0034 121.248C50.3728 121.55 48.7792 120.695 48.1235 119.178L40.4091 101.311L32.4824 82.9607C32.1966 82.2847 32.1298 81.5776 32.2564 80.9075C32.4622 79.7917 33.2046 78.7889 34.3174 78.3038C35.1907 77.9265 36.1464 77.911 37.0209 78.2625C37.1379 78.3137 37.2543 78.3619 37.3621 78.4148C38.0776 78.7957 38.6367 79.3926 38.9641 80.1401L45.9544 96.325L54.6051 116.357C55.3745 118.148 54.5561 120.233 52.7701 121.014L52.7677 121.018ZM68.7534 116.725C68.3265 117.568 67.6069 118.196 66.7087 118.489C66.5486 118.547 66.3937 118.582 66.2376 118.611C64.5092 118.931 62.7978 117.917 62.2499 116.247L54.0955 91.5551L50.0779 79.3868C49.7766 78.4886 49.8532 77.5299 50.2693 76.6794C50.6962 75.8365 51.425 75.207 52.314 74.9155C53.2106 74.6131 54.1657 74.6802 55.0073 75.1106C55.8472 75.5319 56.4837 76.257 56.7759 77.1569L60.605 88.7485L68.9448 114.018C69.2461 114.916 69.1695 115.875 68.7534 116.725ZM80.6279 115.945L80.4719 115.974C78.615 116.318 76.8194 115.139 76.3882 113.295L69.9861 85.6791L67.6915 75.7906C67.2538 73.8939 68.4379 71.9914 70.3385 71.541C71.2389 71.3108 72.1839 71.478 72.9826 71.9672C73.7921 72.4638 74.3592 73.2588 74.5746 74.1888L76.8406 83.9559L83.2744 111.692C83.7121 113.589 82.528 115.491 80.6274 115.942L80.6279 115.945ZM93.7209 81.3259L97.5638 109.371C97.8205 111.247 96.5601 112.993 94.7032 113.337L94.538 113.368C92.6116 113.626 90.8283 112.274 90.5619 110.345L86.7028 82.1603L85.3373 72.1978C85.2075 71.252 85.4633 70.3045 86.041 69.5413C86.622 68.7966 87.4419 68.3182 88.3601 68.202C90.2865 67.9433 92.0697 69.296 92.3361 71.2244L93.7209 81.3259ZM110.068 68.2718L110.642 80.9989L111.824 107.065C111.904 108.822 110.666 110.382 108.941 110.702C108.785 110.731 108.627 110.751 108.458 110.757C107.514 110.805 106.619 110.476 105.92 109.842C105.225 109.197 104.816 108.329 104.774 107.382L103.573 80.8158L103.018 68.5891C102.971 67.6439 103.298 66.7402 103.942 66.044C104.575 65.3435 105.443 64.9386 106.388 64.8967C107.322 64.8504 108.227 65.1772 108.926 65.8116C109.62 66.4563 110.03 67.3249 110.068 68.2718ZM127.778 65.3042L126.946 84.4313L126.062 104.738C125.989 106.387 124.805 107.76 123.175 108.062C122.915 108.11 122.65 108.13 122.379 108.12C120.433 108.031 118.926 106.377 119.007 104.428L119.976 82.2457L120.724 64.9948C120.759 64.2593 121.021 63.5832 121.431 63.0286C122.11 62.1294 123.2 61.5694 124.41 61.6145C125.504 61.6622 126.458 62.205 127.074 63.0258C127.548 63.6575 127.812 64.4549 127.781 65.3037L127.778 65.3042Z" fill="#E83131"/>
<path d="M122.376 108.12C122.647 108.134 122.912 108.11 123.172 108.062C124.802 107.76 125.986 106.39 126.059 104.738L127.775 65.3042C127.856 63.3558 126.35 61.7015 124.404 61.612C122.459 61.5317 120.809 63.0514 120.717 64.9923L119 104.426C118.919 106.374 120.426 108.028 122.372 108.118L122.376 108.12ZM119.891 104.47L121.608 65.0365C121.664 63.7773 122.581 62.7611 123.768 62.5412C123.958 62.5061 124.163 62.487 124.362 62.504C125.819 62.5668 126.952 63.8054 126.889 65.2656L125.172 104.699C125.115 106.139 123.872 107.295 122.415 107.232C120.957 107.169 119.825 105.931 119.888 104.47L119.891 104.47Z" fill="#333333"/>
<path d="M108.454 110.754C108.624 110.751 108.782 110.728 108.938 110.699C110.666 110.379 111.904 108.818 111.821 107.062L110.066 68.2716C110.028 67.3246 109.615 66.4566 108.923 65.8113C108.224 65.1769 107.32 64.8502 106.385 64.8965C105.44 64.9353 104.572 65.3402 103.939 66.0439C103.295 66.74 102.968 67.6437 103.015 68.589L104.771 107.379C104.809 108.326 105.222 109.194 105.916 109.839C106.615 110.473 107.511 110.802 108.454 110.754ZM105.656 107.342L103.901 68.5517C103.868 67.8384 104.11 67.1627 104.59 66.6427C104.985 66.2113 105.49 65.9276 106.056 65.8228C106.178 65.8001 106.299 65.7872 106.425 65.7829C107.128 65.751 107.812 65.9951 108.33 66.4727C108.858 66.9518 109.159 67.606 109.19 68.3102L110.945 107.1C111.014 108.536 109.891 109.812 108.421 109.869C107.718 109.901 107.034 109.657 106.516 109.179C105.988 108.7 105.687 108.046 105.656 107.342Z" fill="#333333"/>
<path d="M94.5412 113.367L94.7064 113.337C96.5635 112.993 97.821 111.248 97.5673 109.371L92.3397 71.2239C92.0734 69.2955 90.29 67.9429 88.3634 68.2015C87.4422 68.3184 86.6247 68.7931 86.0442 69.5409C85.4665 70.3041 85.2107 71.2516 85.3405 72.1974L90.568 110.344C90.8344 112.273 92.6177 113.625 94.5443 113.367L94.5412 113.367ZM86.2125 72.0707C86.1164 71.3595 86.3021 70.65 86.7451 70.083C87.1422 69.5593 87.7001 69.2214 88.3242 69.1058L88.4803 69.0769C89.925 68.8821 91.2613 69.9023 91.4641 71.3481L96.6916 109.495C96.8774 110.9 95.9438 112.204 94.5456 112.463L94.4233 112.486C92.9785 112.681 91.6423 111.66 91.4395 110.215L86.2119 72.0677L86.2125 72.0707Z" fill="#333333"/>
<path d="M80.4723 115.974L80.6283 115.945C82.529 115.494 83.7133 113.592 83.2756 111.695L74.5787 74.1912C74.3632 73.2612 73.793 72.4667 72.9865 71.9696C72.1878 71.4805 71.2397 71.3138 70.3423 71.5435C68.4416 71.9939 67.2574 73.8964 67.6951 75.7931L76.392 113.297C76.8201 115.142 78.6188 116.32 80.4759 115.976L80.4723 115.974ZM70.5387 72.4041L70.6764 72.3786C71.3097 72.2612 71.9619 72.3845 72.5176 72.7221C73.124 73.0947 73.5501 73.6908 73.7135 74.3895L82.4104 111.894C82.7356 113.317 81.8507 114.748 80.4227 115.086L80.3095 115.107C78.9114 115.366 77.575 114.482 77.2485 113.104L68.5516 75.5995C68.2264 74.1764 69.1113 72.7446 70.5393 72.4072L70.5387 72.4041Z" fill="#333333"/>
<path d="M62.2472 116.248C62.7981 117.917 64.5097 118.931 66.2352 118.612C66.3912 118.583 66.5455 118.545 66.7062 118.49C67.6045 118.196 68.3242 117.569 68.7512 116.726C69.1703 115.875 69.2439 114.916 68.9425 114.018L56.7733 77.1575C56.4811 76.2576 55.8446 75.5325 55.0046 75.1113C54.1635 74.6839 53.2083 74.6168 52.3112 74.9162C51.422 75.2077 50.6932 75.8372 50.2662 76.6801C49.8471 77.5312 49.7735 78.4893 50.0749 79.3875L62.2441 116.248L62.2472 116.248ZM51.0614 77.0812C51.3748 76.4462 51.9273 75.9762 52.5951 75.7542C52.7141 75.7131 52.8317 75.6818 52.9541 75.6592C53.517 75.5549 54.0893 75.639 54.6134 75.8906C55.2486 76.2134 55.7157 76.7576 55.9386 77.4358L68.1079 114.297C68.3291 114.965 68.2811 115.684 67.9585 116.321C67.6451 116.956 67.0926 117.426 66.4248 117.648C65.0297 118.112 63.5313 117.328 63.0813 115.966L50.912 79.1056C50.6908 78.4367 50.7388 77.7178 51.0614 77.0812Z" fill="#333333"/>
<path d="M32.4793 82.9614L48.1204 119.179C48.7755 120.693 50.3697 121.551 52.0003 121.249C52.2603 121.201 52.5152 121.125 52.7646 121.019C54.5505 120.238 55.3689 118.153 54.5995 116.362L38.9585 80.1445C38.584 79.2788 37.8954 78.614 37.0153 78.2668C36.1438 77.9148 35.1851 77.9308 34.3118 78.3081C32.5258 79.0891 31.7075 81.1741 32.4768 82.965L32.4793 82.9614ZM34.673 79.1191C34.8531 79.0319 35.0516 78.9761 35.2505 78.9393C35.7277 78.8508 36.2292 78.8942 36.6949 79.0868C37.3524 79.3422 37.8665 79.8492 38.1472 80.4976L53.7882 116.715C54.3673 118.056 53.7471 119.62 52.4114 120.2C51.0726 120.781 49.5037 120.146 48.9342 118.822L33.2931 82.6046C32.7141 81.2634 33.3342 79.7 34.67 79.1197L34.673 79.1191Z" fill="#333333"/>
<path d="M143.021 33.1015C142.229 32.4114 141.189 32.1192 140.155 32.3108L101.958 39.3879L78.518 11.8453C77.8902 11.1154 76.7884 11.0247 76.0505 11.6559L71.5041 15.5378C71.0157 15.9611 70.8109 16.6013 70.9198 17.1928C70.9739 17.4871 71.1082 17.7697 71.3139 18.0105L91.2056 41.3833L58.1207 47.5133L68.3801 18.554C68.4865 18.2554 68.5119 17.9464 68.4572 17.6491C68.3483 17.0576 67.929 16.533 67.3222 16.3127L61.6969 14.3153C60.7829 13.9902 59.7866 14.4728 59.4595 15.3765L47.3672 49.5025L9.17052 56.5796C8.13652 56.7712 7.26837 57.417 6.77489 58.3452C6.29227 59.2809 6.2577 60.3649 6.69247 61.3177L12.7165 74.642C13.3559 76.0702 14.8754 76.8663 16.4111 76.5818L19.6844 75.9753L40.6167 122.309C43.055 127.702 48.8139 130.717 54.6294 129.64L123.69 116.844C129.505 115.767 133.811 110.886 134.169 104.975L137.227 54.197L140.506 53.5894C142.042 53.3049 143.178 52.0168 143.266 50.4536L144.15 35.8495C144.217 34.8038 143.801 33.8 143.015 33.1026L143.021 33.1015ZM71.9894 17.4352C71.6788 17.0712 71.723 16.521 72.0778 16.2144L76.6225 12.3233C76.7472 12.2273 76.88 12.1583 77.0269 12.1311C77.3205 12.0767 77.6369 12.1797 77.8425 12.4205L100.952 39.5775L92.212 41.1968L71.9894 17.4352ZM60.2952 15.6717C60.4557 15.2204 60.9515 14.9923 61.4001 15.1437L67.0302 17.1496C67.4744 17.3114 67.708 17.8069 67.5475 18.2582L57.1173 47.6992L48.3773 49.3186L60.2952 15.6717ZM133.293 104.928C132.958 110.43 128.949 114.979 123.535 115.982L54.4739 128.778C49.0592 129.781 43.6956 126.971 41.4329 121.948L20.5818 75.8154L136.334 54.3687L133.29 104.929L133.293 104.928ZM143.277 35.7989L142.393 50.403C142.327 51.5563 141.482 52.5148 140.353 52.724L16.2581 75.7163C15.1293 75.9255 13.9984 75.3331 13.5261 74.2796L7.499 60.9559C7.17949 60.2512 7.20195 59.4451 7.56305 58.7602C7.92053 58.0727 8.56957 57.5943 9.33436 57.4526L140.322 33.1832C141.086 33.0415 141.86 33.2594 142.438 33.7704C143.017 34.2844 143.324 35.0262 143.28 35.7983L143.277 35.7989Z" fill="#333333"/>
<path d="M8.75675 59.3477C8.47248 60.6047 11.243 66.7538 12.6633 67.1658C14.0867 67.5772 136.285 45.1612 138.511 43.8486C140.737 42.536 141.314 35.9094 140.543 35.3803C139.772 34.8512 9.12797 57.7036 8.75675 59.3477Z" fill="#E83131"/>
<path opacity="0.4" d="M136.338 54.3682L134.163 90.4348C132.844 87.9091 130.329 85.9314 126.947 84.4344L127.779 65.3073C127.86 63.3588 126.353 61.7046 124.407 61.6151C122.463 61.5348 120.813 63.0544 120.721 64.9954L119.973 82.2463C117.13 81.632 113.987 81.2255 110.642 80.9989L110.068 68.2718C110.03 67.3249 109.617 66.4568 108.926 65.8116C108.227 65.1772 107.322 64.8504 106.388 64.8967C105.443 64.9355 104.575 65.3404 103.942 66.044C103.298 66.7402 102.971 67.6439 103.018 68.5891L103.573 80.8159C100.382 80.8397 97.0764 81.0116 93.7214 81.329L92.3366 71.2275C92.0703 69.299 90.287 67.9464 88.3606 68.2051C87.4394 68.3219 86.622 68.7966 86.0415 69.5444C85.4639 70.3075 85.2081 71.2551 85.3379 72.2009L86.7034 82.1633C83.3997 82.6392 80.0916 83.2457 76.8386 83.9626L74.5727 74.1955C74.3572 73.2655 73.7871 72.471 72.9806 71.9739C72.182 71.4847 71.2339 71.3181 70.3366 71.5477C68.436 71.9981 67.2519 73.9006 67.6896 75.7973L69.9842 85.6858C66.7314 86.5928 63.5824 87.6168 60.6031 88.7551L56.7739 77.1636C56.4818 76.2637 55.8453 75.5385 55.0053 75.1173C54.1643 74.69 53.2092 74.6229 52.3121 74.9222C51.423 75.2137 50.6942 75.8432 50.2673 76.6861C49.8482 77.5372 49.7747 78.4953 50.076 79.3935L54.0936 91.5618C51.0692 93.0224 48.329 94.6172 45.953 96.3348L38.9627 80.1499C38.5882 79.2843 37.8996 78.6195 37.0195 78.2722C36.148 77.9202 35.1893 77.9362 34.316 78.3136C32.53 79.0945 31.7117 81.1796 32.4811 82.9705L40.4078 101.321C37.9066 104.266 36.4692 107.474 36.4332 110.888L20.5833 75.8216L136.336 54.3749L136.338 54.3682Z" fill="#9C2121"/>
<path opacity="0.4" d="M136.338 54.3677L135.761 63.9167C133.846 63.4157 130.857 63.1264 127.071 63.026C126.452 62.2057 125.501 61.6624 124.407 61.6147C123.197 61.5695 122.104 62.1301 121.428 63.0288C98.845 63.4983 58.9755 69.0153 37.3621 78.4144C37.2543 78.3615 37.1379 78.3133 37.0209 78.2621C36.1494 77.9101 35.1907 77.9261 34.3174 78.3034C33.2046 78.7885 32.4647 79.7877 32.2564 80.9071C29.2972 82.533 26.9046 84.2632 25.2202 86.0776L20.5853 75.8145L136.338 54.3677Z" fill="#9C2121"/>
<g opacity="0.5" style="mix-blend-mode:multiply">
<path d="M58.5968 43.5108L57.1147 47.6966L48.374 49.3161L50.9559 42.0295C52.7322 43.6877 56.0952 44.1518 58.5968 43.5108Z" fill="#824F73"/>
</g>
<g opacity="0.5" style="mix-blend-mode:multiply">
<path d="M100.956 39.574L92.2151 41.1935L89.169 37.6216C91.9177 37.6353 95.1965 36.3876 96.6477 34.5086L100.956 39.574Z" fill="#824F73"/>
</g>
</g>
<defs>
<clipPath id="clip0_210_1871">
<rect width="140.005" height="112.35" fill="white" transform="matrix(0.983265 -0.18218 0.181021 0.983479 0 25.5059)"/>
</clipPath>
</defs>
</svg>
