<svg width="182" height="75" viewBox="0 0 182 75" fill="none" xmlns="http://www.w3.org/2000/svg">
<g clip-path="url(#clip0_1181_241)">
<path d="M160.776 30.4611L169.962 39.7032H140V46.0023H170.073L161.58 54.5482L166.011 59.0005L182 42.9049L165.207 26.0005L160.776 30.4611Z" fill="white"/>
</g>
<path d="M138.38 22.1244L136.436 27.8893L134.251 33.6285L131.145 32.581L132.882 26.6909L134.826 20.926L138.38 22.1244ZM132.073 34.9975C133.316 35.4165 133.983 36.6379 133.573 37.8555C133.162 39.0731 131.891 39.6408 130.649 39.2218C129.382 38.7944 128.739 37.5814 129.15 36.3638C129.56 35.1462 130.806 34.5701 132.073 34.9975Z" fill="white"/>
<path d="M122.841 18.0937L127.054 18.957L123.369 36.9401L119.696 36.1874L121.238 28.6602L122.609 23.6676L112.194 34.6504L107.981 33.7872L111.666 15.804L115.339 16.5567L113.797 24.0839L112.426 29.0765L122.841 18.0937Z" fill="white"/>
<path d="M99.9921 14.9488L103.74 15.0836L103.08 33.4285L99.3321 33.2936L99.6055 25.6936L91.4552 25.4004L91.1817 33.0004L87.4341 32.8656L88.0941 14.5207L91.8417 14.6555L91.5834 21.8362L99.7337 22.1295L99.9921 14.9488Z" fill="white"/>
<path d="M72.3685 15.8928L80.2125 15.0108L82.2636 33.2526L78.537 33.6716L77.8309 27.3912L75.5116 27.652L71.7354 34.4364L67.175 34.9492L71.327 27.7531C68.8185 27.2698 67.1394 25.4794 66.8112 22.5608C66.3981 18.8863 68.4335 16.3352 72.3685 15.8928ZM73.7234 24.4225L77.45 24.0035L76.8845 18.974L73.1579 19.393C71.2295 19.6098 70.4027 20.7055 70.5756 22.2431C70.7484 23.7806 71.795 24.6393 73.7234 24.4225Z" fill="white"/>
<path d="M59.9832 17.7986L60.8387 21.261L55.6961 22.5316L59.2439 36.8901L55.6034 37.7896L52.0556 23.4312L46.9385 24.6956L46.083 21.2332L59.9832 17.7986Z" fill="white"/>
<path d="M31.7703 26.591C36.761 24.5232 42.179 26.7066 44.2468 31.6973C46.3146 36.688 44.0284 42.0634 39.0377 44.1312C34.047 46.199 28.6532 44.0056 26.5855 39.0149C24.5177 34.0242 26.7796 28.6588 31.7703 26.591ZM33.1354 29.8859C30.0829 31.1506 28.7591 34.3957 30.0741 37.5694C31.3891 40.7431 34.62 42.1011 37.6725 40.8364C40.7251 39.5716 42.0488 36.3265 40.7339 33.1528C39.4189 29.9791 36.188 28.6211 33.1354 29.8859Z" fill="white"/>
<path d="M16.6543 34.2319L26.5764 49.6761L23.4214 51.703L15.427 39.2594L8.56538 43.6677L16.5597 56.1113L13.4047 58.1382L3.48264 42.694L6.63767 40.6671L16.6543 34.2319Z" fill="white"/>
<defs>
<clipPath id="clip0_1181_241">
<rect width="42" height="33" fill="white" transform="translate(140 26.0005)"/>
</clipPath>
</defs>
</svg>
