<svg width="340" height="229" viewBox="0 0 340 229" fill="none" xmlns="http://www.w3.org/2000/svg">
<path d="M81.3494 220.538C80.8759 220.631 80.3796 220.526 79.9886 220.22C65.2327 208.275 58.4507 186.547 63.5379 168.582C54.0565 171.062 41.5099 172.812 31.5902 166.047C20.0997 158.219 17.3917 142.586 19.7389 131.385C21.6183 122.412 27.7565 112.686 37.1282 110.771C31.9623 103.64 29.6992 94.3085 31.2078 85.7907C32.4861 78.5473 36.6282 71.7109 42.5877 67.0379C46.2959 64.1155 50.5509 62.1946 54.8552 61.453C60.8815 60.4349 67.3352 60.8446 73.4817 62.6648C73.6182 62.6985 82.8178 65.6745 87.3459 69.0004C91.8389 51.8372 105.626 38.3572 122.488 34.9565L122.735 34.9082C139.886 31.5517 158.659 38.8817 170.176 53.2543C182.98 37.7899 195.89 29.3182 209.747 27.3722C225.268 25.1812 244.762 34.3855 249.738 51.1263C260.936 41.438 277.124 38.2901 290.913 43.3306C306.015 48.8597 317.668 64.4149 318.638 80.3478C319.59 96.2034 309.684 111.463 295.768 116.021C301.221 125.776 301.727 138.394 296.941 148.016C291.828 158.287 280.79 165.043 269.453 164.803C258.916 164.587 249.211 159.07 239.468 152.613C238.286 162.397 233.268 171.461 225.747 177.225C217.49 183.537 206.421 185.743 196.14 183.12C185.565 180.433 176.747 173.211 169.204 166.122C166.306 183.114 152.416 196.896 135.801 198.717C118.812 200.591 101.006 189.807 93.5655 173.387C88.4017 177.199 82.5565 183.341 80.8592 192.359C79.5104 199.576 78.4368 215.022 82.057 217.941C82.7145 218.477 82.7943 219.409 82.223 220.024C81.978 220.274 81.6702 220.435 81.3614 220.495L81.3494 220.538Z" fill="url(#paint0_linear_183_224)"/>
<defs>
<linearGradient id="paint0_linear_183_224" x1="52.9538" y1="229.231" x2="162.256" y2="-48.9833" gradientUnits="userSpaceOnUse">
<stop stop-color="#565450"/>
<stop offset="0.18" stop-color="#949290"/>
<stop offset="0.34" stop-color="#C6C3C3"/>
<stop offset="0.42" stop-color="#DAD7D7"/>
<stop offset="0.45" stop-color="#D3D0CF"/>
<stop offset="0.49" stop-color="#C0BDBC"/>
<stop offset="0.54" stop-color="#A09D9C"/>
<stop offset="0.55" stop-color="#969391"/>
<stop offset="0.65" stop-color="#969391"/>
<stop offset="0.84" stop-color="#C4C1C0"/>
<stop offset="0.86" stop-color="#BDBAB9"/>
<stop offset="0.9" stop-color="#AAA7A6"/>
<stop offset="0.94" stop-color="#8C8987"/>
<stop offset="0.99" stop-color="#615F5C"/>
<stop offset="1" stop-color="#565450"/>
</linearGradient>
</defs>
</svg>
